<svg width="200" height="200" viewBox="0 0 200 200" fill="none" xmlns="http://www.w3.org/2000/svg">
<path d="M42.778 165.99H128.087C138.583 165.965 147.086 157.447 147.086 146.945V55.4629H112.193V20H42.822C32.303 20 23.778 28.527 23.778 39.041V146.945C23.778 157.453 32.281 165.964 42.778 165.99Z" fill="url(#paint0_linear_2866_135)"/>
<path d="M116.178 20.2451L147.199 51.2573H116.178V20.2451Z" fill="#3D49D2"/>
<path d="M184.624 128.245V167.807C184.624 174.459 179.23 179.852 172.58 179.852H131.512H121.49C114.837 179.852 109.445 174.459 109.445 167.807V157.422V117.861C109.445 111.207 114.837 105.814 121.49 105.814H162.558H167.646V122.886H184.625V128.245H184.624Z" fill="#2AB36B"/>
<path d="M169.939 105.816L184.435 120.31H169.939V105.816Z" fill="#2AB36B"/>
<path d="M45.5059 85.4941C45.5059 84.1821 46.9199 83.1172 48.6619 83.1172H122.208C123.952 83.1172 125.364 84.1811 125.364 85.4941V90.1851C125.364 91.4961 123.952 92.5562 122.208 92.5562H48.6619C46.9199 92.5562 45.5059 91.4951 45.5059 90.1851V85.4941ZM45.5059 46.9102C45.5059 45.5982 46.9199 44.5332 48.6619 44.5332H83.5089C85.2519 44.5332 86.6659 45.5972 86.6659 46.9102V51.5991C86.6659 52.9111 85.2519 53.9741 83.5089 53.9741H48.6619C46.9199 53.9741 45.5059 52.9121 45.5059 51.5991V46.9102ZM45.5059 66.1792C45.5059 64.8682 46.9199 63.8081 48.6619 63.8081H122.208C123.952 63.8081 125.364 64.8692 125.364 66.1792V70.8701C125.364 72.1821 123.952 73.2432 122.208 73.2432H48.6619C46.9199 73.2432 45.5059 72.1821 45.5059 70.8701V66.1792Z" fill="#BDA5E3"/>
<path d="M121.444 179.853H172.624C179.256 179.83 184.624 174.445 184.624 167.808V141.076C165.1 136.209 138.74 133.053 109.442 132.57V167.855C109.469 174.468 114.826 179.829 121.444 179.853Z" fill="url(#paint1_linear_2866_135)"/>
<path d="M15 96.3433V96.6631V96.979V97.2842V97.5913V97.8843V98.1733V98.4541V98.731V98.999V99.2651V99.5229V99.7773V100.027V100.271V100.509V100.743V100.972V101.199V101.42V101.639V101.852V102.063V102.272V102.473V102.676V102.873V103.072V103.265V103.454V103.645V103.831V104.017V104.201V104.387V104.565V104.747V104.931V105.109V105.287V105.465V105.645V105.823V106.005V106.183V106.367V106.545V106.727V106.913V107.095V107.283V107.472V107.663V107.852V108.045V108.244V108.445V108.646V108.853V109.058V109.273V109.488V109.709V109.93V110.157C15 129.85 30.961 144.788 50.651 144.788H82.571V151.595C82.571 154.191 85.248 155.599 86.788 155.599C89.384 155.599 91.746 152.585 94.412 150.408C102.171 144.092 109.086 138.658 116.658 131.623C118.601 129.816 118.734 126.363 116.658 124.406C109.127 117.322 102.171 111.935 94.412 105.619C91.746 103.441 89.384 100.428 86.788 100.428C85.248 100.428 82.571 101.838 82.571 104.432V111.387H37.774C27.74 111.38 19.329 104.667 15 96.3433Z" fill="url(#paint2_linear_2866_135)"/>
<path d="M128.31 161.288H139.806L146.926 150.161L153.99 161.288H165.754L153.094 142.415L165.226 124.376H153.732L147.139 134.763L140.598 124.376H128.838L140.967 142.517L128.31 161.288Z" fill="#32FBB8"/>
<defs>
<linearGradient id="paint0_linear_2866_135" x1="109.462" y1="168.335" x2="54.9767" y2="20.0178" gradientUnits="userSpaceOnUse">
<stop stop-color="#1A3ED4"/>
<stop offset="0.302" stop-color="#1A3ED4"/>
<stop offset="0.8314" stop-color="#A787DA"/>
<stop offset="1" stop-color="#A787DA"/>
</linearGradient>
<linearGradient id="paint1_linear_2866_135" x1="133.649" y1="181.041" x2="156.875" y2="129.754" gradientUnits="userSpaceOnUse">
<stop stop-color="#2AB36B"/>
<stop offset="1" stop-color="#0EDF8E"/>
</linearGradient>
<linearGradient id="paint2_linear_2866_135" x1="14.6983" y1="125.594" x2="119.033" y2="126.67" gradientUnits="userSpaceOnUse">
<stop stop-color="#06A4B2"/>
<stop offset="1" stop-color="#00E5E5"/>
</linearGradient>
</defs>
</svg>
